<?xml version="1.0" standalone="no"?>
<!DOCTYPE svg PUBLIC "-//W3C//DTD SVG 20010904//EN" "http://www.w3.org/TR/2001/REC-SVG-20010904/DTD/svg10.dtd">
<svg version="1.0" xmlns="http://www.w3.org/2000/svg" width="100.000000pt" height="100.000000pt" viewBox="0 0 100.000000 100.000000" preserveAspectRatio="xMidYMid meet">
    <g transform="translate(0.000000,100.000000) scale(0.100000,-0.100000)" fill="#083553" stroke="none">
        <path d="M417 911 l-52 -50 44 -44 c39 -41 46 -44 81 -40 32 5 43 1 65 -22 23
-22 27 -33 22 -65 -4 -34 -1 -42 37 -78 36 -35 45 -39 78 -35 75 10 117 -79
63 -132 -33 -33 -78 -33 -112 1 -21 21 -25 32 -20 64 4 35 1 42 -38 80 -24 23
-48 39 -54 36 -7 -5 -11 -50 -11 -123 0 -115 0 -115 30 -143 56 -52 24 -140
-50 -140 -74 0 -106 88 -50 140 30 28 30 28 30 140 l0 112 -31 29 c-28 26 -31
34 -26 68 4 36 1 43 -39 82 l-45 44 -149 -151 c-134 -135 -150 -154 -150 -184
0 -31 19 -53 213 -247 195 -195 215 -213 247 -213 32 0 52 18 247 213 195 195
213 215 213 247 0 32 -18 52 -213 247 -249 249 -243 247 -330 164z" />
    </g>
</svg>