<?xml version="1.0" standalone="no"?>
<!DOCTYPE svg PUBLIC "-//W3C//DTD SVG 20010904//EN" "http://www.w3.org/TR/2001/REC-SVG-20010904/DTD/svg10.dtd">
<svg version="1.0" xmlns="http://www.w3.org/2000/svg" width="100.000000pt" height="100.000000pt" viewBox="0 0 100.000000 100.000000" preserveAspectRatio="xMidYMid meet">
	<g transform="translate(0.000000,100.000000) scale(0.100000,-0.100000)" fill="#083553" stroke="none">
		<path d="M368 851 c-101 -40 -191 -133 -223 -231 -26 -78 -18 -209 17 -280 34
-68 106 -142 171 -174 59 -30 77 -25 77 20 0 31 -3 34 -30 34 -46 0 -78 20
-105 67 -14 23 -30 43 -35 43 -6 0 -10 5 -10 10 0 21 39 9 64 -20 45 -55 104
-59 123 -10 10 27 9 28 -28 34 -102 16 -164 154 -109 244 12 20 18 42 15 53
-9 29 4 79 21 79 8 0 29 -7 46 -16 23 -12 59 -16 138 -16 79 0 115 4 138 16
17 9 38 16 46 16 16 0 31 -50 22 -78 -3 -10 3 -35 14 -57 51 -99 -6 -225 -110
-241 -34 -6 -38 -9 -30 -25 6 -10 10 -51 10 -92 0 -90 8 -96 79 -61 69 35 154
129 181 201 31 84 26 216 -12 293 -35 71 -107 143 -177 178 -74 36 -219 43
-293 13z" />
	</g>
</svg>
