<?xml version="1.0" standalone="no"?>
<!DOCTYPE svg PUBLIC "-//W3C//DTD SVG 20010904//EN" "http://www.w3.org/TR/2001/REC-SVG-20010904/DTD/svg10.dtd">
<svg version="1.0" xmlns="http://www.w3.org/2000/svg" width="100.000000pt" height="100.000000pt" viewBox="0 0 100.000000 100.000000" preserveAspectRatio="xMidYMid meet">
	<g transform="translate(0.000000,100.000000) scale(0.100000,-0.100000)" fill="white" stroke="none">
		<path d="M165 843 c3 -16 17 -165 31 -333 14 -168 27 -306 28 -307 0 -1 62
-19 137 -40 l136 -39 140 39 139 38 28 312 c15 172 29 322 32 335 l4 22 -340
0 -339 0 4 -27z m601 -75 c-4 -24 -16 -149 -27 -278 -12 -129 -22 -236 -24
-238 -1 -1 -49 -16 -106 -33 l-104 -30 -101 27 c-56 15 -107 29 -112 33 -6 4
-20 110 -31 241 -12 129 -24 254 -27 278 l-5 42 271 0 271 0 -5 -42z" />
		<path d="M314 623 c11 -146 -4 -133 147 -133 l130 0 -3 -52 c-3 -52 -3 -52
-45 -64 -34 -10 -52 -10 -85 0 -38 10 -43 16 -46 44 -3 30 -5 32 -44 32 l-41
0 7 -37 c3 -21 6 -49 6 -63 0 -23 7 -27 81 -47 l81 -21 76 22 77 22 6 49 c4
28 9 80 13 118 l5 67 -138 0 c-135 0 -139 1 -145 23 -16 58 -19 57 144 57
l150 0 0 40 0 40 -191 0 -191 0 6 -97z" />
	</g>
</svg>
