<?xml version="1.0" standalone="no"?>
<!DOCTYPE svg PUBLIC "-//W3C//DTD SVG 20010904//EN" "http://www.w3.org/TR/2001/REC-SVG-20010904/DTD/svg10.dtd">
<svg version="1.0" xmlns="http://www.w3.org/2000/svg" width="100.000000pt" height="100.000000pt" viewBox="0 0 100.000000 100.000000" preserveAspectRatio="xMidYMid meet">
	<g transform="translate(0.000000,100.000000) scale(0.100000,-0.100000)" fill="#083553" stroke="none">
		<path d="M406 890 c-63 -16 -153 -70 -197 -117 -22 -24 -55 -74 -72 -111 -29
-61 -32 -76 -32 -163 0 -90 2 -99 37 -171 45 -91 103 -147 196 -191 61 -29 76
-32 162 -32 86 0 101 3 160 31 95 46 153 101 197 192 36 72 38 81 38 172 0 91
-2 100 -37 172 -68 136 -188 217 -336 224 -42 2 -94 -1 -116 -6z m-22 -186 c9
-8 16 -20 16 -25 0 -14 -38 -49 -54 -49 -21 0 -46 28 -46 50 0 36 56 52 84 24z
m16 -239 l0 -135 -50 0 -50 0 0 135 0 135 50 0 50 0 0 -135z m160 120 c0 -14
3 -14 30 0 47 24 85 19 114 -16 24 -29 26 -37 26 -135 l0 -104 -45 0 -45 0 0
81 c0 83 -10 119 -35 119 -29 0 -45 -42 -45 -122 l0 -78 -45 0 -45 0 0 135 0
135 45 0 c34 0 45 -4 45 -15z" />
	</g>
</svg>
