<?xml version="1.0" standalone="no"?>
<!DOCTYPE svg PUBLIC "-//W3C//DTD SVG 20010904//EN" "http://www.w3.org/TR/2001/REC-SVG-20010904/DTD/svg10.dtd">
<svg version="1.0" xmlns="http://www.w3.org/2000/svg" width="100.000000pt" height="100.000000pt" viewBox="0 0 100.000000 100.000000" preserveAspectRatio="xMidYMid meet">
	<g transform="translate(0.000000,100.000000) scale(0.100000,-0.100000)" fill="#083553" stroke="none">
		<path d="M257 900 c-37 -29 -51 -81 -44 -165 l6 -72 -54 -22 c-66 -27 -125
-89 -125 -130 0 -57 80 -130 167 -153 19 -5 21 -9 12 -44 -29 -129 12 -234 94
-234 33 0 97 31 149 72 l37 29 48 -37 c87 -67 149 -81 196 -44 46 36 54 90 34
233 -1 14 10 23 45 36 89 35 138 86 138 145 0 38 -62 101 -126 127 l-54 23 6
72 c8 84 -6 134 -43 164 -47 37 -109 23 -196 -44 l-48 -37 -39 31 c-47 37
-117 69 -151 70 -15 0 -38 -9 -52 -20z m128 -49 c28 -16 58 -37 67 -47 16 -18
15 -22 -25 -66 -39 -44 -46 -47 -103 -53 l-61 -7 -7 32 c-14 74 -3 142 28 162
21 14 51 8 101 -21z m338 12 c23 -26 30 -67 22 -129 l-7 -56 -56 7 c-80 9 -83
11 -119 60 l-32 43 36 32 c65 58 127 74 156 43z m-201 -130 c28 -25 22 -33
-29 -33 l-46 0 23 25 c28 30 28 30 52 8z m80 -111 c14 -20 35 -57 47 -81 l22
-43 -38 -66 -38 -67 -95 -3 -95 -3 -38 70 -38 70 22 43 c12 24 33 60 46 81
l23 37 79 0 78 0 25 -38z m-242 24 c0 -2 -12 -25 -26 -51 l-27 -47 -13 32
c-19 45 -17 58 9 63 32 6 57 8 57 3z m358 -11 c6 -6 -19 -75 -26 -75 -7 0 -52
74 -52 86 0 6 71 -4 78 -11z m-459 -76 l23 -61 -22 -53 -22 -54 -41 15 c-91
32 -135 90 -104 138 15 23 108 76 133 76 6 0 21 -27 33 -61z m601 23 c83 -51
75 -111 -21 -159 -72 -36 -79 -35 -101 24 l-21 53 23 61 c21 56 25 60 49 54
14 -3 46 -18 71 -33z m-530 -172 l20 -40 -22 0 c-41 0 -49 12 -36 48 7 18 14
32 15 32 1 0 12 -18 23 -40z m376 -32 c-12 -8 -56 -11 -56 -4 0 3 10 22 22 42
l22 37 11 -34 c9 -25 9 -36 1 -41z m-348 -53 c18 -4 42 -24 70 -59 l42 -54
-31 -27 c-40 -33 -102 -65 -128 -65 -11 0 -29 12 -41 28 -20 24 -22 35 -17 99
3 40 8 77 12 83 4 6 20 9 36 6 16 -3 42 -8 57 -11z m383 -20 c18 -83 5 -155
-33 -178 -25 -16 -87 6 -136 49 l-42 36 19 26 c52 70 67 83 111 91 64 13 74
10 81 -24z m-207 -20 c-15 -20 -31 -34 -37 -32 -6 2 -21 17 -35 35 l-25 32 62
0 62 0 -27 -35z" />
		<path d="M451 586 c-87 -48 -50 -186 49 -186 51 0 100 49 100 99 0 75 -83 124
-149 87z m89 -46 c11 -11 20 -29 20 -40 0 -26 -34 -60 -60 -60 -11 0 -29 9
-40 20 -11 11 -20 29 -20 40 0 11 9 29 20 40 11 11 29 20 40 20 11 0 29 -9 40
-20z" />
	</g>
</svg>