<?xml version="1.0" standalone="no"?>
<!DOCTYPE svg PUBLIC "-//W3C//DTD SVG 20010904//EN" "http://www.w3.org/TR/2001/REC-SVG-20010904/DTD/svg10.dtd">
<svg version="1.0" xmlns="http://www.w3.org/2000/svg" width="100.000000pt" height="100.000000pt" viewBox="0 0 100.000000 100.000000" preserveAspectRatio="xMidYMid meet">
	<g transform="translate(0.000000,100.000000) scale(0.100000,-0.100000)" fill="white" stroke="none">
		<path d="M406 890 c-63 -16 -153 -70 -197 -117 -22 -24 -55 -74 -72 -111 -29
-61 -32 -76 -32 -162 0 -81 4 -103 26 -150 l25 -55 -22 -80 c-35 -123 -40
-118 71 -88 l96 25 52 -23 c42 -19 70 -23 147 -24 86 0 101 3 160 31 95 46
153 101 197 192 36 72 38 81 38 172 0 91 -2 100 -37 172 -68 136 -188 217
-336 224 -42 2 -94 -1 -116 -6z m-9 -212 c5 -7 17 -32 26 -54 14 -36 14 -44 2
-60 -8 -11 -15 -27 -15 -37 0 -23 81 -102 120 -115 27 -10 32 -8 46 13 20 30
33 31 84 5 46 -24 53 -57 19 -89 -31 -29 -65 -34 -123 -17 -74 22 -142 71
-192 138 -70 95 -79 155 -32 206 24 24 50 29 65 10z" />
	</g>
</svg>
